<svg width="121" height="120" viewBox="0 0 121 120" fill="none" xmlns="http://www.w3.org/2000/svg">
<path d="M76.392 49.761C75.059 51.108 73.465 52.195 71.735 52.977C68.416 54.481 65.39 55.312 62.329 55.576L76.392 49.761Z" fill="white"/>
<path d="M79.085 45.979C78.747 46.657 78.362 47.31 77.925 47.934C77.891 47.984 77.855 48.033 77.819 48.082L59.485 55.661C58.434 55.638 57.368 55.553 56.272 55.413L79.085 45.979Z" fill="white"/>
<path d="M80.2969 42.785C80.1099 43.465 79.8869 44.131 79.6219 44.784L54.5569 55.148H54.5549C53.9649 55.045 53.3619 54.927 52.7509 54.794C52.4489 54.729 52.1289 54.655 51.7849 54.575L80.2969 42.785Z" fill="white"/>
<path d="M80.8479 40.101C80.7849 40.565 80.7059 41.027 80.6109 41.488C80.5969 41.558 80.5819 41.63 80.5659 41.7L50.3339 54.202C49.7099 54.029 49.0209 53.824 48.2579 53.572L80.8479 40.101Z" fill="white"/>
<path d="M75.5009 25.72C75.4269 25.688 75.3549 25.655 75.2849 25.625C75.3049 25.632 75.3249 25.639 75.3429 25.648C75.3969 25.671 75.4489 25.695 75.5009 25.72Z" fill="white"/>
<path d="M75.5009 25.72C75.4269 25.688 75.3549 25.655 75.2849 25.625C75.3049 25.632 75.3249 25.639 75.3429 25.648C75.3969 25.671 75.4489 25.695 75.5009 25.72Z" fill="white"/>
<path d="M82.267 41.594C82.612 39.468 82.744 37.318 82.648 35.163C82.614 34.438 82.556 33.713 82.465 33.017C81.886 28.649 78.932 25.023 74.338 23.997C74.237 23.974 74.137 23.952 74.034 23.932C69.265 23 65.031 25.549 63.77 27.024C62.523 28.483 58.559 26.841 58.472 26.806C59.231 28.254 61.003 29.211 61.003 29.211C62.843 30.292 63.662 29.598 63.946 29.175C64.234 28.754 65.13 27.813 65.13 27.813C68.3 25.125 71.944 24.897 73.166 25.037C73.324 25.057 73.56 25.093 73.851 25.159C73.928 25.177 74.006 25.197 74.081 25.217C74.149 25.233 74.218 25.253 74.284 25.273C74.351 25.289 74.417 25.309 74.482 25.331C74.534 25.347 74.585 25.365 74.637 25.381C74.716 25.408 74.795 25.435 74.873 25.462C74.977 25.498 75.082 25.538 75.182 25.581C75.2 25.59 75.22 25.597 75.24 25.604C75.256 25.609 75.271 25.615 75.287 25.624C75.357 25.655 75.429 25.687 75.503 25.719C75.552 25.741 75.6 25.762 75.649 25.786C75.696 25.808 75.744 25.831 75.791 25.854C75.843 25.881 75.895 25.906 75.948 25.933C76.723 26.343 77.373 26.841 77.914 27.356C78.653 28.061 79.339 28.979 79.862 29.97C79.867 29.977 79.871 29.984 79.875 29.993C80.341 30.874 80.676 31.813 80.809 32.713C80.809 32.717 80.811 32.72 80.811 32.722C80.976 33.85 81.122 35.408 81.083 37.18C81.07 37.763 81.04 38.344 80.986 38.925L46.788 53.065C46.301 52.889 45.786 52.696 45.245 52.484C41.913 51.182 38.692 49.618 35.601 47.821C34.682 47.287 33.773 46.733 32.877 46.157L19.564 37.607C19.604 37.562 19.643 37.515 19.683 37.47C29.586 26.062 44.194 18.846 60.489 18.846C76.784 18.846 91.392 26.061 101.293 37.47C101.334 37.515 101.372 37.56 101.412 37.605L101.414 37.607L78.765 52.149C78.799 52.118 78.832 52.086 78.862 52.055C79.198 51.717 79.312 51.431 79.366 51.321C79.58 50.884 80.251 48.964 80.893 47.083C81.499 45.306 81.958 43.492 82.258 41.659C82.262 41.637 82.265 41.616 82.267 41.594Z" fill="white"/>
<path d="M60.4859 64.472L53.9359 68.678C55.5209 70.518 57.8679 71.682 60.4859 71.682C63.1049 71.682 65.4509 70.518 67.0379 68.678L60.4859 64.472ZM60.4859 67.35C59.8709 67.35 59.3719 66.852 59.3719 66.236C59.3719 65.619 59.8699 65.121 60.4859 65.121C61.1019 65.121 61.6009 65.619 61.6009 66.236C61.6019 66.852 61.1019 67.35 60.4859 67.35Z" fill="white"/>
<path d="M101.51 37.757L60.488 64.432L60.389 64.369L19.465 37.757L19.564 37.608C19.604 37.563 19.643 37.516 19.683 37.471L35.601 47.822L60.488 64.005L78.862 52.057L101.292 37.472C101.333 37.517 101.371 37.562 101.411 37.607L101.413 37.609L101.51 37.757Z" fill="white"/>
<path d="M24.682 84.758C25.642 85.718 26.122 87.058 26.122 88.777V96.263H22.897V89.215C22.897 88.217 22.644 87.453 22.137 86.923C21.63 86.393 20.939 86.128 20.064 86.128C19.189 86.128 18.494 86.393 17.979 86.923C17.464 87.453 17.207 88.217 17.207 89.215V96.263H13.982V89.215C13.982 88.217 13.729 87.453 13.222 86.923C12.715 86.393 12.024 86.128 11.149 86.128C10.258 86.128 9.556 86.393 9.041 86.923C8.526 87.453 8.269 88.217 8.269 89.215V96.263H5.047V86.727C5.047 84.946 6.491 83.502 8.272 83.502V83.533C8.272 84.07 8.866 84.378 9.317 84.086C9.491 83.973 9.676 83.871 9.872 83.778C10.525 83.471 11.243 83.317 12.026 83.317C13.024 83.317 13.915 83.528 14.698 83.95C15.481 84.373 16.088 84.975 16.518 85.758C16.933 85.021 17.535 84.43 18.326 83.984C19.117 83.539 19.973 83.316 20.894 83.316C22.46 83.319 23.723 83.799 24.682 84.758Z" fill="white"/>
<path d="M41.393 83.503L33.493 102.298H30.061L32.825 95.941L27.712 83.503H31.328L34.622 92.417L37.962 83.503H41.393Z" fill="white"/>
<path d="M43.063 86.405C43.577 85.407 44.276 84.639 45.159 84.102C46.042 83.565 47.028 83.296 48.119 83.296C49.071 83.296 49.904 83.488 50.618 83.872C51.332 84.256 51.904 84.74 52.334 85.323C52.334 84.318 53.149 83.503 54.154 83.503H55.582V96.263H52.334V94.397C51.919 94.996 51.347 95.491 50.618 95.883C49.889 96.275 49.048 96.47 48.096 96.47C47.021 96.47 46.042 96.194 45.159 95.641C44.276 95.088 43.577 94.309 43.063 93.303C42.548 92.297 42.291 91.142 42.291 89.837C42.291 88.547 42.548 87.404 43.063 86.405ZM51.873 87.868C51.566 87.308 51.151 86.878 50.629 86.578C50.107 86.279 49.546 86.129 48.948 86.129C48.349 86.129 47.796 86.275 47.29 86.567C46.783 86.859 46.372 87.285 46.058 87.845C45.743 88.406 45.586 89.07 45.586 89.837C45.586 90.605 45.743 91.277 46.058 91.852C46.373 92.428 46.787 92.87 47.302 93.176C47.816 93.483 48.365 93.637 48.949 93.637C49.548 93.637 50.108 93.487 50.63 93.188C51.152 92.889 51.566 92.459 51.874 91.898C52.181 91.338 52.335 90.666 52.335 89.883C52.334 89.1 52.18 88.429 51.873 87.868Z" fill="white"/>
<path d="M69.493 84.758C70.429 85.718 70.898 87.058 70.898 88.777V96.263H67.673V89.215C67.673 88.201 67.42 87.422 66.913 86.877C66.406 86.332 65.715 86.059 64.84 86.059C63.949 86.059 63.247 86.332 62.732 86.877C62.217 87.422 61.96 88.201 61.96 89.215V96.263H58.735V86.727C58.735 84.946 60.179 83.502 61.96 83.502C61.96 84.056 62.574 84.406 63.039 84.105C63.218 83.989 63.407 83.884 63.607 83.79C64.275 83.476 65.008 83.318 65.807 83.318C67.328 83.319 68.557 83.799 69.493 84.758Z" fill="white"/>
<path d="M83.728 83.952C84.48 84.375 85.067 84.997 85.49 85.818C85.912 86.64 86.123 87.626 86.123 88.778V96.264H82.898V89.216C82.898 88.202 82.645 87.423 82.138 86.878C81.631 86.333 80.94 86.06 80.065 86.06C79.174 86.06 78.472 86.333 77.957 86.878C77.442 87.423 77.185 88.202 77.185 89.216V96.264H73.96V79.219H77.185V85.092C77.6 84.539 78.152 84.106 78.843 83.791C79.534 83.477 80.302 83.319 81.146 83.319C82.116 83.319 82.976 83.53 83.728 83.952Z" fill="white"/>
<path d="M91.536 95.653C90.553 95.108 89.781 94.337 89.221 93.338C88.66 92.34 88.38 91.188 88.38 89.883C88.38 88.578 88.668 87.426 89.244 86.428C89.82 85.43 90.607 84.658 91.605 84.113C92.603 83.568 93.716 83.295 94.945 83.295C96.173 83.295 97.286 83.568 98.285 84.113C99.283 84.658 100.07 85.43 100.646 86.428C101.222 87.426 101.51 88.578 101.51 89.883C101.51 91.188 101.214 92.34 100.623 93.338C100.032 94.336 99.233 95.108 98.228 95.653C97.222 96.198 96.097 96.471 94.854 96.471C93.624 96.471 92.519 96.198 91.536 95.653ZM96.5 93.235C97.014 92.951 97.425 92.525 97.732 91.957C98.039 91.389 98.193 90.698 98.193 89.884C98.193 88.671 97.874 87.738 97.237 87.085C96.6 86.432 95.82 86.106 94.899 86.106C93.978 86.106 93.206 86.432 92.584 87.085C91.962 87.738 91.651 88.671 91.651 89.884C91.651 91.097 91.954 92.03 92.561 92.683C93.167 93.336 93.931 93.662 94.853 93.662C95.437 93.661 95.985 93.519 96.5 93.235Z" fill="white"/>
<path d="M114.638 84.758C115.574 85.718 116.043 87.058 116.043 88.777V96.263H112.818V89.215C112.818 88.201 112.565 87.422 112.058 86.877C111.551 86.332 110.86 86.059 109.985 86.059C109.094 86.059 108.392 86.332 107.877 86.877C107.362 87.422 107.105 88.201 107.105 89.215V96.263H103.88V86.727C103.88 84.946 105.324 83.502 107.105 83.502C107.105 84.056 107.719 84.406 108.184 84.105C108.363 83.989 108.552 83.884 108.752 83.79C109.42 83.476 110.153 83.318 110.952 83.318C112.473 83.319 113.702 83.799 114.638 84.758Z" fill="white"/>
</svg>
