<svg width="161" height="105" viewBox="0 0 161 105" fill="none" xmlns="http://www.w3.org/2000/svg">
<path d="M111.517 61.2686C108.918 63.8966 105.809 66.0148 102.435 67.5414C95.9622 70.4742 90.0619 72.0951 84.0911 72.6104L111.517 61.2686Z" fill="#EA2F69"/>
<path d="M116.768 53.8958C116.109 55.2188 115.358 56.4919 114.506 57.7096C114.44 57.808 114.369 57.9022 114.3 57.9978L78.5438 72.7753C76.4948 72.7296 74.4154 72.5648 72.2778 72.2919L116.768 53.8958Z" fill="#EA2F69"/>
<path d="M119.133 47.6646C118.769 48.9903 118.334 50.2884 117.817 51.5615L68.9349 71.7766H68.9307C67.7795 71.5771 66.6047 71.3458 65.4119 71.0853C64.8231 70.9593 64.1983 70.8152 63.5278 70.6573L119.133 47.6646Z" fill="#EA2F69"/>
<path d="M120.207 42.4307C120.083 43.3353 119.93 44.2372 119.744 45.1349C119.716 45.272 119.687 45.4119 119.657 45.5491L60.6989 69.9313C59.4812 69.5947 58.1374 69.1943 56.6509 68.7039L120.207 42.4307Z" fill="#EA2F69"/>
<path d="M109.779 14.3856C109.635 14.3219 109.495 14.2595 109.358 14.2C109.397 14.2138 109.436 14.2277 109.47 14.2457C109.576 14.2914 109.677 14.3371 109.779 14.3856Z" fill="#EA2F69"/>
<path d="M109.78 14.3856C109.636 14.3219 109.496 14.2595 109.359 14.2C109.398 14.2138 109.436 14.2277 109.471 14.2457C109.576 14.2914 109.678 14.3371 109.78 14.3856Z" fill="#EA2F69"/>
<path d="M122.975 45.3426C123.649 41.1962 123.905 37.0041 123.719 32.801C123.653 31.3865 123.54 29.9735 123.362 28.6158C122.233 20.0987 116.472 13.0264 107.512 11.026C107.315 10.9803 107.118 10.9387 106.919 10.8999C97.6191 9.08234 89.361 14.0544 86.902 16.9304C84.4707 19.7759 76.7391 16.5729 76.5701 16.5064C78.051 19.3298 81.5061 21.1973 81.5061 21.1973C85.0955 23.3058 86.6915 21.9509 87.2456 21.1266C87.8067 20.3051 89.5536 18.4709 89.5536 18.4709C95.735 13.2301 102.842 12.784 105.225 13.0583C105.534 13.0971 105.994 13.1677 106.562 13.2966C106.713 13.3312 106.864 13.37 107.01 13.4088C107.143 13.4407 107.276 13.4795 107.407 13.5169C107.537 13.5487 107.666 13.5875 107.793 13.6291C107.894 13.6609 107.993 13.6956 108.095 13.7274C108.249 13.7801 108.404 13.8327 108.555 13.8854C108.759 13.956 108.962 14.0322 109.159 14.1167C109.194 14.1347 109.233 14.1486 109.271 14.1624C109.303 14.1735 109.331 14.1832 109.363 14.2012C109.5 14.2608 109.64 14.3245 109.784 14.3869C109.878 14.4284 109.974 14.4714 110.068 14.5171C110.159 14.5586 110.254 14.6044 110.345 14.6501C110.446 14.7027 110.549 14.7512 110.65 14.8039C112.161 15.6032 113.429 16.5757 114.484 17.5787C115.927 18.9544 117.263 20.7429 118.283 22.6754C118.294 22.6893 118.301 22.7031 118.308 22.7211C119.217 24.4404 119.869 26.2718 120.128 28.0257C120.128 28.0326 120.132 28.0395 120.132 28.0437C120.455 30.2436 120.739 33.2817 120.662 36.7368C120.637 37.8728 120.577 39.006 120.472 40.1392L53.7838 67.7133C52.8334 67.3697 51.8304 66.9943 50.7734 66.5801C44.2761 64.0407 37.9935 60.9915 31.9658 57.4866C30.1732 56.4448 28.4013 55.3642 26.6544 54.2421L0.692871 37.568C0.770451 37.4807 0.846645 37.3893 0.924225 37.302C20.236 15.0532 48.7258 0.982178 80.5017 0.982178C112.278 0.982178 140.767 15.0532 160.076 37.302C160.157 37.3893 160.23 37.4779 160.308 37.5652L160.312 37.5694L116.144 65.9276C116.211 65.868 116.274 65.8043 116.334 65.7447C116.991 65.0853 117.211 64.527 117.316 64.3136C117.733 63.4616 119.042 59.7184 120.295 56.0486C121.476 52.5824 122.371 49.047 122.957 45.4714C122.964 45.4299 122.971 45.3869 122.975 45.3454V45.3426Z" fill="#EA2F69"/>
<path d="M80.4985 89.958L67.7256 98.1593C70.8163 101.749 75.3949 104.018 80.4985 104.018C85.6063 104.018 90.1808 101.749 93.2757 98.1593L80.4985 89.958ZM80.4985 95.5715C79.2988 95.5715 78.3277 94.6003 78.3277 93.4006C78.3277 92.1967 79.2988 91.2256 80.4985 91.2256C81.6983 91.2256 82.6735 92.1967 82.6735 93.4006C82.6735 94.6003 81.6983 95.5715 80.4985 95.5715Z" fill="#EA2F69"/>
<path d="M160.5 37.8603L80.5014 89.8817L80.3088 89.7584L0.5 37.8603L0.692564 37.5694C0.770144 37.4821 0.846338 37.3907 0.923918 37.3034L31.9669 57.488L80.5014 89.0463L116.334 65.7461L160.076 37.302C160.156 37.3893 160.23 37.4779 160.307 37.5652L160.312 37.5694L160.5 37.8603Z" fill="#EA2F69"/>
</svg>
